<svg xmlns="http://www.w3.org/2000/svg" width="47.638" height="30.317" viewBox="0 0 47.638 30.317"><defs><style>.a{fill:none;stroke:#3b3b3b;stroke-miterlimit:10;stroke-width:2px;}</style></defs><g transform="translate(-929.368 -479.865)"><path class="a" d="M967.485,485.379v16.379a2.338,2.338,0,0,0,2.337,2.341h4.686V485.379Z" transform="translate(1.498 0.182)"/><path class="a" d="M930.368,504.091h4.682a2.338,2.338,0,0,0,2.341-2.337V485.379h-7.022Z" transform="translate(0 0.182)"/><path class="a" d="M947.7,480.865h-4.931a2.342,2.342,0,0,0-1.653.688l-4,3.994v16.379h1.339l6.62,5.989a4.681,4.681,0,0,0,6.583-.68l.015-.015,1.31,1.134a2.719,2.719,0,0,0,3.824-.393v0l2.3-2.824.4.322a2.337,2.337,0,0,0,3.288-.337l0-.006,2-2.693a2.331,2.331,0,0,0-.167-3.3l-12.468-10.136-3.7,3.388c-.007.007-.022.007-.029.015a3.05,3.05,0,0,1-4.1-.2,2.913,2.913,0,0,1,.154-4.1c.007-.007.015-.022.022-.029l7.191-6.583a2.345,2.345,0,0,1,1.58-.615h6.284a2.329,2.329,0,0,1,1.653.688l3.993,3.994h3.511" transform="translate(0.273)"/></g></svg>