<svg xmlns="http://www.w3.org/2000/svg" width="159.007" height="12" viewBox="0 0 159.007 12"><g transform="translate(-568.552 -308.058)"><path d="M577.936,310.34c.534,0,.787-.013,1.029-.027a8.519,8.519,0,0,0-.04.882V312.9a5.913,5.913,0,0,0,.04.882c-.4-.014-.641-.027-1.029-.027h-3.417c-.16.254-.24.386-.254.413h4.7a12.412,12.412,0,0,0,1.495-.079v1.228a12.018,12.018,0,0,0-1.495-.08h-1.656a7.026,7.026,0,0,0,3.43,1.308,6.292,6.292,0,0,0-.667,1.281,12.237,12.237,0,0,1-1.668-.653v1.668a7.648,7.648,0,0,0,.067,1.135h-1.4v-.508H572.2v.508h-1.4a7.692,7.692,0,0,0,.081-1.135v-1.7a12.135,12.135,0,0,1-1.576.747,3.482,3.482,0,0,0-.747-1.2,8.252,8.252,0,0,0,3.137-1.455h-1.441a11.568,11.568,0,0,0-1.469.08v-1.228a11.8,11.8,0,0,0,1.469.079h2.537a3.188,3.188,0,0,0,.279-.413h-1.775c-.4,0-.64.012-1.027.027a5.9,5.9,0,0,0,.053-.882v-1.709a6.015,6.015,0,0,0-.053-.882c.227.013.494.027,1.027.027h.628v-.453h-1.668a9.136,9.136,0,0,0-1.4.079v-1.2a11.038,11.038,0,0,0,1.429.08h1.642v-.094a3.3,3.3,0,0,0-.053-.693h1.429a3.288,3.288,0,0,0-.041.693v.094h2.644v-.094a3.563,3.563,0,0,0-.053-.693h1.428a3.54,3.54,0,0,0-.039.693v.094h1.722a11.628,11.628,0,0,0,1.455-.08v1.215a9.092,9.092,0,0,0-1.415-.094H577.23v.453Zm-6.341,1.269h6.034v-.387H571.6Zm0,1.2h6.034v-.374H571.6Zm.6,4.312h4.873V316.6H572.2Zm0,1.361h4.873v-.547H572.2Zm1.2-3.243a4.944,4.944,0,0,1-.453.427h3.23c-.147-.134-.227-.214-.427-.427Zm2.5-5.353H573.25v.453h2.644Z" transform="translate(0)"/><path d="M588.069,313.133a2.707,2.707,0,0,1,3.016,2.723q0,2.364-3,3.325a10.785,10.785,0,0,1-2.443.441c-.281,0-.347-.067-.534-.454a1.806,1.806,0,0,0-.708-.775c3.352-.266,5.007-1.121,5.007-2.576,0-.815-.574-1.3-1.535-1.3a4.912,4.912,0,0,0-3.5,1.735,3.381,3.381,0,0,0-.48.614c-.12.2-.2.267-.321.267a2.266,2.266,0,0,1-.987-.441.445.445,0,0,1-.214-.426,9.028,9.028,0,0,0,.053-.708c.067-.855.107-1.215.266-2.417.027-.147.027-.147.12-.775.013-.04.04-.294.107-.787a3.329,3.329,0,0,0,.027-.441,5.214,5.214,0,0,1,1.5.387c.106.053.16.12.146.2a.415.415,0,0,1-.067.174,2.219,2.219,0,0,0-.307.854,19.009,19.009,0,0,0-.333,2.123A5.663,5.663,0,0,1,588.069,313.133Zm-.24-3.8c.521.307.681.453.681.6a2.82,2.82,0,0,1-.441.854c-.214.307-.294.374-.4.374-.067,0-.107-.027-.267-.147a8.536,8.536,0,0,0-2.6-1.415c-.2-.08-.24-.107-.24-.214a1.606,1.606,0,0,1,.347-.708c.214-.321.307-.4.454-.4A9.336,9.336,0,0,1,587.829,309.328Z" transform="translate(1.562 0.024)"/><path d="M595.5,308.712c.334.094.427.16.427.307a.822.822,0,0,1-.08.321,7.492,7.492,0,0,0-.306,2c-.108,2.149-.16,3.818-.16,5.139a3.445,3.445,0,0,0,.106.962c.148.441.614.668,1.362.668a4.89,4.89,0,0,0,3.377-1.469,7.984,7.984,0,0,0,1.269-1.548,4.518,4.518,0,0,0,.48,1.309.782.782,0,0,1,.067.306c0,.24-.254.561-.92,1.161a6.42,6.42,0,0,1-4.325,1.8,3.06,3.06,0,0,1-2.243-.735,3.371,3.371,0,0,1-.708-2.55c0-1.041.013-1.842.12-4.952.013-.467.027-.748.027-.868a12.662,12.662,0,0,0-.094-2.042A7.624,7.624,0,0,1,595.5,308.712Z" transform="translate(2.859 0.053)"/><path d="M606.713,315.981a.334.334,0,0,1,.053.187c0,.093-.013.108-.134.4a14.338,14.338,0,0,0-.747,2.3c-.041.147-.081.227-.134.254a4.031,4.031,0,0,1-.668.093h-.053c-.067,0-.16-.013-.267-.013-.174,0-.214-.04-.267-.2a17.614,17.614,0,0,1-.454-4,20.379,20.379,0,0,1,.467-4.379c.134-.72.2-1.121.254-1.562a6.154,6.154,0,0,1,1.441.427c.227.093.294.16.294.294,0,.094-.013.132-.16.346a15.733,15.733,0,0,0-.934,5.447c0,.307.013.72.053,1.388.373-.841.506-1.1.814-1.749A4.007,4.007,0,0,0,606.713,315.981Zm2.9.948a3.756,3.756,0,0,0,1.83.307,6.788,6.788,0,0,0,2.189-.307.663.663,0,0,1,.187-.04c.094,0,.159.053.173.187a10.752,10.752,0,0,1,.12,1.254c0,.134-.04.174-.227.227a9.06,9.06,0,0,1-2.349.28,4.893,4.893,0,0,1-2.617-.521c-.588-.359-1.2-1.094-1.2-1.455,0-.187.279-.441,1-.882A1.886,1.886,0,0,0,609.61,316.929Zm-.934-6.809a11.76,11.76,0,0,0,1.8.12,14.846,14.846,0,0,0,2.59-.214.447.447,0,0,1,.12-.012c.094,0,.134.04.16.146a9.4,9.4,0,0,1,.067,1.082c0,.2-.04.267-.187.294a14.175,14.175,0,0,1-2.416.173,11.121,11.121,0,0,1-2.31-.146c-.067-.041-.094-.134-.094-.374a7.449,7.449,0,0,1,.067-1c.013-.053.053-.08.134-.08A.146.146,0,0,1,608.676,310.12Z" transform="translate(4.013 0.113)"/><path d="M625.6,309.046a11.03,11.03,0,0,0,1.522-.08v1.348a15.2,15.2,0,0,0-1.522-.067H623.98v.855h1.375a8.139,8.139,0,0,0,1.241-.067v1.2a11.776,11.776,0,0,0-1.241-.053H625.1v.882h.8a9.3,9.3,0,0,0,1.361-.08v1.294a9.679,9.679,0,0,0-1.361-.08h-.8v.988h.254a10.851,10.851,0,0,0,1.241-.053v1.188a12.1,12.1,0,0,0-1.241-.053h-3.43v.855H625.6c.6,0,1.042-.027,1.468-.067v1.268a11.974,11.974,0,0,0-1.482-.08h-3.658v.494a9.319,9.319,0,0,0,.079,1.308h-1.521a9.069,9.069,0,0,0,.08-1.321v-.481h-3.4a12.377,12.377,0,0,0-1.468.08v-1.268a10.559,10.559,0,0,0,1.482.067h3.39v-.855h-3.243a10.589,10.589,0,0,0-1.229.053v-1.188a9.783,9.783,0,0,0,1.229.053h.24V314.2h-.788a10.3,10.3,0,0,0-1.375.08v-1.294a10.172,10.172,0,0,0,1.375.08h.788v-.882h-.24a11.534,11.534,0,0,0-1.229.053v-1.2a7.862,7.862,0,0,0,1.229.067h1.228v-.855h-1.428c-.628,0-1.122.028-1.508.067v-1.348a11.066,11.066,0,0,0,1.508.08h1.428v-.2a3.886,3.886,0,0,0-.053-.68h1.483a3.982,3.982,0,0,0-.053.68v.2H622.6v-.2a3.982,3.982,0,0,0-.053-.68h1.483a3.886,3.886,0,0,0-.053.68v.2Zm-6.7,4.018h1.668v-.882h-1.668Zm0,2.123h1.668V314.2h-1.668Zm1.028-4.085H622.6v-.855h-2.683Zm2,1.962h1.855v-.882h-1.855Zm0,2.123h1.855V314.2h-1.855Z" transform="translate(5.297 0.012)"/><path d="M633.631,315.822c-1.322.774-1.7,1.161-1.7,1.749a.553.553,0,0,0,.295.52,4.149,4.149,0,0,0,1.789.267,20.165,20.165,0,0,0,2.4-.159,9.162,9.162,0,0,0,.975-.214h.067a.226.226,0,0,1,.2.16,4.388,4.388,0,0,1,.134,1.161c0,.2-.067.281-.24.321a24.68,24.68,0,0,1-2.777.147,8.337,8.337,0,0,1-3.137-.374,1.766,1.766,0,0,1-1.162-1.762,2.543,2.543,0,0,1,1.082-2.029,11.123,11.123,0,0,1,1.936-1.242c-.107-.44-.307-.627-.721-.627a3.225,3.225,0,0,0-1.749.627,8.9,8.9,0,0,0-1.121.922c-.4.414-.441.441-.548.441-.134,0-.414-.307-.695-.775a1.32,1.32,0,0,1-.214-.494c0-.12.027-.147.347-.346a8.226,8.226,0,0,0,2.55-2.63c-.947.067-1.441.08-1.962.08-.2,0-.24-.04-.307-.267a11.538,11.538,0,0,1-.12-1.241,8.05,8.05,0,0,0,1.361.079c.521,0,1.1-.013,1.7-.04a5.208,5.208,0,0,0,.386-1.868c1.189.2,1.735.4,1.735.627a.326.326,0,0,1-.052.16,8.348,8.348,0,0,0-.374.8.549.549,0,0,0-.04.093c.76-.106,1.428-.239,1.9-.346a1.79,1.79,0,0,1,.426-.093.168.168,0,0,1,.187.12,7.966,7.966,0,0,1,.135,1.041c0,.147-.055.214-.228.254a27.054,27.054,0,0,1-3.123.468,7.538,7.538,0,0,1-1.1,1.615,3.511,3.511,0,0,1,1.589-.387c.6,0,1,.347,1.268,1.1,1.321-.721,2.029-1.109,2.109-1.162a4.066,4.066,0,0,0,1.162-.895,4.9,4.9,0,0,1,1.134,1.63c0,.08-.053.134-.227.174a27.391,27.391,0,0,0-3.9,1.682c.013.24.04.854.04,1.281v.641c0,.16-.027.24-.094.281a1.978,1.978,0,0,1-.828.107c-.453,0-.533-.04-.533-.254V317.1c.027-.387.04-.895.04-1.215Z" transform="translate(6.773 0.019)"/><path d="M639.922,316.027c.146-.16.173-.174.239-.174a6.284,6.284,0,0,1,1.549,1.122,6.988,6.988,0,0,1,1.241,1.548c0,.067-.04.12-.307.374s-.307.279-.374.279c-.04,0-.079-.027-.132-.106a7.142,7.142,0,0,0-2.457-2.51c-.067-.04-.094-.08-.094-.134S639.6,316.347,639.922,316.027Z" transform="translate(8.032 0.881)"/><path d="M649.841,311.944a11.332,11.332,0,0,1-1.749,2.682,3.656,3.656,0,0,0-1.041-1.081,9.291,9.291,0,0,0,2.163-3.752,6.015,6.015,0,0,0,.279-1.188l1.469.361a2.858,2.858,0,0,1-.12.334c-.027.08-.04.094-.134.427-.053.174-.107.346-.334.961h2.083v-.974a12.453,12.453,0,0,0-.08-1.548h1.628a11.51,11.51,0,0,0-.08,1.534v.988h2.684a16.564,16.564,0,0,0,1.722-.08v1.415c-.547-.053-1.094-.079-1.7-.079h-2.71v2.349h2.216a12.967,12.967,0,0,0,1.588-.079v1.415a13.725,13.725,0,0,0-1.575-.08h-2.229v2.724h3.084a13.5,13.5,0,0,0,1.775-.093v1.467a14.26,14.26,0,0,0-1.735-.092H649.2a15.841,15.841,0,0,0-1.816.092v-1.467a14.5,14.5,0,0,0,1.776.093h3.3v-2.724h-1.976a12.933,12.933,0,0,0-1.548.08v-1.4a11.79,11.79,0,0,0,1.535.067h1.989v-2.349Z" transform="translate(8.876 0.012)"/><path d="M660.51,311.454a14.8,14.8,0,0,1,2.39,1.495l-.775,1.175a13.053,13.053,0,0,0-2.389-1.63Zm2.416,4.339a26.5,26.5,0,0,1-1.9,3.965l-1.241-.988a3.965,3.965,0,0,0,.467-.56,13.973,13.973,0,0,0,1.548-3.218Zm-1.909-7.583a16.587,16.587,0,0,1,2.27,1.682l-.841,1.1a13.7,13.7,0,0,0-2.3-1.775Zm5.5,2.083c-1.308.16-1.562.175-2.642.24a3.827,3.827,0,0,0-.508-1.268,20.284,20.284,0,0,0,6.9-1.135l.947,1.3c-.214.053-.214.053-.628.16-.614.174-1.8.4-2.683.534v1.694h2.229a9.973,9.973,0,0,0,1.428-.079V313.2a9.746,9.746,0,0,0-1.416-.08h-2.242v1.655h1.936a10.031,10.031,0,0,0,1.027-.04,9.079,9.079,0,0,0-.053,1.149v2.749a11.973,11.973,0,0,0,.067,1.309h-1.455v-.628h-4.285v.628h-1.415c.027-.334.053-.828.053-1.322v-2.789c0-.414-.013-.788-.041-1.1a10,10,0,0,0,1,.04h1.775v-1.655h-1.989a10.9,10.9,0,0,0-1.428.08v-1.468a10.222,10.222,0,0,0,1.428.079h1.989Zm-1.375,7.716h4.285v-1.976h-4.285Z" transform="translate(10.31 0.008)"/><path d="M675.635,315.981a.334.334,0,0,1,.053.187c0,.093-.013.108-.134.4a14.344,14.344,0,0,0-.747,2.3c-.041.147-.081.227-.135.254a4,4,0,0,1-.667.093h-.053c-.067,0-.16-.013-.267-.013-.174,0-.214-.04-.267-.2a17.611,17.611,0,0,1-.454-4,20.376,20.376,0,0,1,.468-4.379c.134-.72.2-1.121.254-1.562a6.154,6.154,0,0,1,1.442.427c.227.093.294.16.294.294,0,.094-.013.132-.16.346a15.728,15.728,0,0,0-.935,5.447c0,.307.015.72.055,1.388.373-.841.506-1.1.814-1.749A4,4,0,0,0,675.635,315.981Zm2.9.948a3.757,3.757,0,0,0,1.83.307,6.789,6.789,0,0,0,2.189-.307.655.655,0,0,1,.187-.04c.094,0,.159.053.173.187a10.75,10.75,0,0,1,.12,1.254c0,.134-.04.174-.227.227a9.06,9.06,0,0,1-2.349.28,4.892,4.892,0,0,1-2.617-.521c-.588-.359-1.2-1.094-1.2-1.455,0-.187.279-.441,1-.882A1.881,1.881,0,0,0,678.531,316.929Zm-.934-6.809a11.76,11.76,0,0,0,1.8.12,14.855,14.855,0,0,0,2.59-.214.447.447,0,0,1,.12-.012c.094,0,.134.04.16.146a9.433,9.433,0,0,1,.067,1.082c0,.2-.04.267-.187.294a14.177,14.177,0,0,1-2.417.173,11.121,11.121,0,0,1-2.31-.146c-.067-.041-.094-.134-.094-.374a7.451,7.451,0,0,1,.067-1c.013-.053.053-.08.134-.08A.146.146,0,0,1,677.6,310.12Z" transform="translate(11.806 0.113)"/><path d="M690.763,315.05a6.588,6.588,0,0,0-1.148-.067h-.693a7.409,7.409,0,0,0,1.829,1.508,5.528,5.528,0,0,0-.695,1.162,6.518,6.518,0,0,1-1.6-1.829c.04.453.052.84.052,1.148v1.775a7.6,7.6,0,0,0,.081,1.229h-1.483a7.931,7.931,0,0,0,.08-1.242V317.2a9.248,9.248,0,0,1,.053-1.148A9.03,9.03,0,0,1,685.1,318.8a4.471,4.471,0,0,0-.748-1.348,7.67,7.67,0,0,0,1.322-1.135,8.647,8.647,0,0,0,1.027-1.335h-.921a7.419,7.419,0,0,0-1.189.067v-1.428a6.834,6.834,0,0,0,1.2.067h1.388v-.174a4.335,4.335,0,0,0-.067-.922h1.456a3.948,3.948,0,0,0-.068.922v.174h1.109a8.327,8.327,0,0,0,1.148-.053v.681a10.361,10.361,0,0,0,3.285-1.817,5.5,5.5,0,0,0,.934-.947l1.068.987c-.107.08-.24.187-.494.414-.361.334-1.255,1.042-1.669,1.335a13.016,13.016,0,0,1-2.417,1.309,4.638,4.638,0,0,0-.708-1.122Zm.227-5.847c-.28.067-.28.067-1.535.4a34.772,34.772,0,0,1-4.446.734,5.084,5.084,0,0,0-.534-1.281h.227a21.181,21.181,0,0,0,4.126-.534,5.51,5.51,0,0,0,1.228-.44Zm-5.139,1.335a10.671,10.671,0,0,1,.815,2.042l-1.109.414a8.663,8.663,0,0,0-.8-2.069Zm1.722,1.922a7.413,7.413,0,0,0-.668-2.016l1.109-.32a8.6,8.6,0,0,1,.668,2.028Zm8.117-3.284c-.134.12-.254.24-.321.294-.134.12-.134.12-.68.6a12.77,12.77,0,0,1-3.058,1.935,4.175,4.175,0,0,0-.708-1.134,12.683,12.683,0,0,1-1.041,2.136l-1.015-.441a10.6,10.6,0,0,0,1.055-2.656l1.174.52-.12.307a9.415,9.415,0,0,0,2.764-1.642,4.081,4.081,0,0,0,.788-.868Zm.668,6.969a4.2,4.2,0,0,0-.468.44,19.97,19.97,0,0,1-2.256,1.817,11.877,11.877,0,0,1-2.991,1.508,4.895,4.895,0,0,0-.814-1.256,11.46,11.46,0,0,0,4.285-2.31,5.438,5.438,0,0,0,1.148-1.228Z" transform="translate(13.094 0.003)"/><path d="M702.1,315.822c-1.322.774-1.7,1.161-1.7,1.749a.552.552,0,0,0,.294.52,4.149,4.149,0,0,0,1.789.267,20.162,20.162,0,0,0,2.4-.159,9.156,9.156,0,0,0,.975-.214h.067a.226.226,0,0,1,.2.16,4.388,4.388,0,0,1,.134,1.161c0,.2-.067.281-.24.321a24.681,24.681,0,0,1-2.777.147,8.341,8.341,0,0,1-3.137-.374,1.766,1.766,0,0,1-1.162-1.762,2.543,2.543,0,0,1,1.082-2.029,11.117,11.117,0,0,1,1.936-1.242c-.107-.44-.307-.627-.721-.627a3.228,3.228,0,0,0-1.749.627,8.89,8.89,0,0,0-1.121.922c-.4.414-.441.441-.548.441-.134,0-.414-.307-.695-.775a1.321,1.321,0,0,1-.214-.494c0-.12.027-.147.347-.346a8.214,8.214,0,0,0,2.55-2.63c-.947.067-1.441.08-1.962.08-.2,0-.24-.04-.307-.267a11.522,11.522,0,0,1-.12-1.241,8.05,8.05,0,0,0,1.361.079c.521,0,1.1-.013,1.7-.04a5.21,5.21,0,0,0,.386-1.868c1.189.2,1.736.4,1.736.627a.33.33,0,0,1-.053.16,8.375,8.375,0,0,0-.374.8.553.553,0,0,0-.04.093c.76-.106,1.428-.239,1.9-.346a1.782,1.782,0,0,1,.427-.093.167.167,0,0,1,.186.12,7.956,7.956,0,0,1,.135,1.041c0,.147-.054.214-.228.254a27.052,27.052,0,0,1-3.123.468,7.5,7.5,0,0,1-1.1,1.615,3.511,3.511,0,0,1,1.589-.387c.6,0,1,.347,1.268,1.1,1.321-.721,2.029-1.109,2.109-1.162a4.067,4.067,0,0,0,1.162-.895,4.884,4.884,0,0,1,1.134,1.63c0,.08-.053.134-.227.174a27.391,27.391,0,0,0-3.9,1.682c.013.24.04.854.04,1.281v.641c0,.16-.027.24-.094.281a1.978,1.978,0,0,1-.828.107c-.453,0-.533-.04-.533-.254V317.1c.027-.387.04-.895.04-1.215Z" transform="translate(14.514 0.019)"/><path d="M711.789,317.22a1.883,1.883,0,1,1-1.882-1.894A1.881,1.881,0,0,1,711.789,317.22Zm-3.218-.012a1.335,1.335,0,1,0,1.336-1.336A1.342,1.342,0,0,0,708.571,317.208Z" transform="translate(15.77 0.822)"/></g></svg>